# xmcd
#
# Track frame offsets: 
#        150
#        12940
#        29585
#        44227
#        59430
#        73495
#        92017
#        104047
#        118552
#        132755
#        144707
#        160752
#        175622
#        189747
#
# Disc length: 2701 seconds
#
# Revision: 4
# Processed by: cddbd v1.5.2PL0 Copyright (c) Steve Scherf et al.
# Submitted via: ExactAudioCopy v0.95a5
#
DISCID=d30a8b0e
DTITLE=30 Years Of Hits (1975-1988) - 30 Years Of Hits (1975-1988)
DYEAR=1900
DGENRE=
TTITLE0=Tanya Tucker - San Antonio Stroll
TTITLE1=Olivia Newton-John - Come On Over
TTITLE2=Merle Haggard - If We're Not Back In Love By Monday
TTITLE3=John Conlee - Rose Colored Glasses
TTITLE4=Barbara Mandrell - (If Loving You Is Wrong) I Don't Want To Be
TTITLE4=Right
TTITLE5=Don Williams - I Believe In You
TTITLE6=Oak Ridge Boys - Elvira
TTITLE7=Gene Watson - This Dream's On Me
TTITLE8=Lee Greenwood - IOU
TTITLE9=John Schneider - I've Been Around Enough To Know
TTITLE10=Reba McEntire - Somebody Should Leave
TTITLE11=Steve Wariner - Life's Highway
TTITLE12=George Strait - Ocean Front Property
TTITLE13=Waylon Jennings - If Ole Hank Could Only See Us Now
EXTD=
EXTT0=
EXTT1=
EXTT2=
EXTT3=
EXTT4=
EXTT5=
EXTT6=
EXTT7=
EXTT8=
EXTT9=
EXTT10=
EXTT11=
EXTT12=
EXTT13=
PLAYORDER=
